<svg xmlns="http://www.w3.org/2000/svg" viewBox="0 0 174.9 299.8"><path fill="#4C59A6" d="M0 0h174.9v299.8H0z"/><path fill="#CCF0F2" d="M120.6 143.2l-22.5-23.8-2.3 2.6c-1.1 1.2-3 1.4-4.2.3l-1.1-.9c-1.2-1.1-1.4-3-.3-4.2L93 114l-2.5-2.6-1.8 2.1c-1.1 1.2-3 1.4-4.2.3l-1.1-.9c-1.2-1.1-1.4-3-.3-4.2l2.3-2.6-3.5-3.7-2.4 2.7c-1.1 1.2-3 1.4-4.2.3l-1.1-.9c-1.2-1.1-1.4-3-.3-4.2l2.8-3.2-13.8-15-9 7.1 58.4 61.8c6.3 6.7 7.7 16.2 4.5 24.2l9.8 6.1c5.9-12.3 4-27.5-6-38.1z"/><path fill="#00B2DA" d="M65.1 195.4c-2.2-2.3-2.7-5.8-1.3-8.6.4-.8 1-1.6 1.7-2.2l8.7-8.2c1.2-1.1 2.6-1.9 4.2-2.2 2.6-.4 5.1.5 6.8 2.3 2.2 2.4 2.7 5.9 1.2 8.9 7.8 4 17.4 2.6 23.9-3.4 2.2-2.1 3.9-4.5 5-7.3l.7-1.8 12.6 7.9-.7 1.5c-1.9 3.8-4.4 7.3-7.6 10.3-12.3 11.6-30.8 12.9-44.7 3.4-3 2.6-7.7 2.4-10.5-.6zM17.4 50.1c.6-1.2 1.8-2.8 3.4-4.2 1.2-1.1 2.5-2.1 3.5-2.7 1.7-1 3-1 3.9-.1l37.1 39.2-11.5 9.2-36.2-38.4c-.5-.5-.9-1.4-.2-3z"/><g fill="#F3D49D"><path d="M90.2 117.1c-1.1 1.2-1 3.1.3 4.2l1.1.9c.9.8 2.1.9 3.1.5 2.1-3.1 3.1-5.9 1.4-6.9-1.5-.9-3.1-.6-4.7 0l-1.2 1.3zm-6.8-4.3l1.1.9c.8.7 1.8.9 2.7.7 1.9-2.6 4.3-5.8 2.3-7.2-1.7-1.2-4.4.7-6.9 2.6-.4 1-.1 2.2.8 3zm-24-17.7c-2.2 5.1 7.2 11.7 3.8 22.6-3.1 10.2 2.4 12.9.9 18.3-2.5 8.7-10.2 39.4-20 58.7-3.3 6.4-8.4 16-13.9 25.9C19.2 240.6 7 262 7 262h16.4c5.1-7.2 14.3-25.6 21.7-41.4 5-10.6 9.2-20.1 10.7-24 5.1-13.3 21-57.2 21-57.2s4.6-2 9.1-6.4c1.3-1.3 3-3 4.7-4.9l-31.2-33zm15.9 3.4L74 100c-1.1 1.2-1 3.1.3 4.2l1.1.9c1.2 1.1 3.1 1 4.2-.3l1.5-1.7c1.7-3.1 2.6-6 .5-7.1-2.1-1-4.3.5-6.3 2.5z"/><path d="M85.4 98.3l-5.8 6.6c-1.1 1.2-3 1.4-4.2.3l-1.1-.9c-1.2-1.1-1.4-3-.3-4.2l5.8-6.6c1.1-1.2 3-1.4 4.2-.3l1.1.9c1.2 1.1 1.3 3 .3 4.2zm9.1 8.6l-5.8 6.6c-1.1 1.2-3 1.4-4.2.3l-1.1-.9c-1.2-1.1-1.4-3-.3-4.2l5.8-6.6c1.1-1.2 3-1.4 4.2-.3l1.1.9c1.3 1.1 1.4 3 .3 4.2zm7.1 8.5l-5.8 6.6c-1.1 1.2-3 1.4-4.2.3l-1.1-.9c-1.2-1.1-1.4-3-.3-4.2l5.8-6.6c1.1-1.2 3-1.4 4.2-.3l1.1.9c1.2 1.1 1.4 3 .3 4.2z"/></g><path fill="#CCF0F2" d="M107.9 94.7l2.4-17.2c.4-2.9-2.5-5.1-5.2-3.9l-15.8 7.3c-.6.3-1.3.5-2 .7l.8 11.7c.3 4.1 4.2 7 8.2 6.1l11.4-2.6c.1-.7.1-1.4.2-2.1z"/><path fill="#00B2DA" d="M159.5 107.5l2-6.3c2.9-8.9.3-18.1-6.5-23.1l-26.4-19.6c-2-1.5-8.5-6.3-10.5-7.8L91.7 31.1c-6.8-5-16.4-4.9-24 .4l-5 3.5c-3.9 2.7-7 6.8-8.1 11.4-1.4 5.8.1 11.4 3.9 15.1L76.3 79c.3.3.7.7 1.1 1 3.3 2.5 7.9 2.8 12 .9l15.8-7.3c2.6-1.2 5.6 1 5.2 3.9L108 94.7c-.6 4.4 1 8.7 4.4 11.2.4.3.8.6 1.2.8l21.5 11.8c3.8 2.1 8.4 2.6 12.8 1 5.5-1.9 9.8-6.4 11.6-12zM87.2 74.6c-1.9.9-4 .7-5.5-.4-.2-.1-.3-.3-.5-.4L63.3 56.2c-4.2-4.1-3.1-11.6 2.2-15.3l5.4-3.8c5.2-3.6 11.8-3.7 16.4-.3l26.4 19.6c1.3 1 1.6 2.7 1 4.2-.5.5-.9 1.1-1.2 1.6-.3.2-.5.4-.9.5L87.2 74.6zm51.9 37.9l-21.9-12c-.2-.1-.4-.2-.6-.4-1.5-1.1-2.3-3.1-2-5.1l3.9-27.8c0-.3.1-.7.3-1 .5-.5.9-1.1 1.2-1.6 1.2-1 3-1.2 4.3-.3l26.4 19.6c4.6 3.4 6.4 9.7 4.5 15.8l-2 6.3c-2.1 6.1-9 9.3-14.1 6.5z"/><path d="M142.4 77.7l-18.1-13.4c-2.1-1.6-5.4 0-5.8 2.9L116.3 83l26.1-5.3zm8.2 6.1c.3.3.7.5 1 .8-.3-.2-.6-.5-1-.8zm2.1 2c.6.7 1.1 1.4 1.5 2.2-.4-.8-.9-1.5-1.5-2.2zm-.1-.2c-.2-.3-.5-.5-.7-.7l.7.7zm-4.5-3.7l2.5 1.9-7.4-5.5 1.4 1L116 85l-1.4 9.9.9-6.4zm6.1 6.1l-39.7 8c.1 1.9 1 3.6 2.6 4.5l21.9 12c5.1 2.8 12-.4 14-6.5l2-6.3c1.4-4.2 1-8.4-.8-11.7zm-39.6 7.6z" fill="#CCF0F2"/><path fill="#FFF" d="M116 85l28.6-5.7-2.2-1.6-26.1 5.2zm34.6-1.2l-2.6-1.9-32.6 6.5-.9 6.5c0 .3-.1.7 0 1l39.7-8c-.8-1.5-2-3-3.6-4.1z"/><g fill="#CCF0F2"><path d="M60.8 49.5l34.3-6.9-7.7-5.7c-4.6-3.4-11.2-3.3-16.4.3L65.6 41c-3.6 2.5-5.3 6.8-4.6 10.6-.2-.7-.2-1.4-.2-2.1z"/><path d="M60.9 51.5c.2 1.4.8 2.8 1.7 3.9-.2-.3-.4-.5-.6-.8l38.8-7.8-3.5-2.6-36.4 7.3zm52.9 5l-9.9-7.4 4.7 3.5L68 60.7l13.2 13c1.5 1.5 3.9 1.8 6 .9l25.5-11.8c2.6-1.2 3.2-4.8 1.1-6.3z"/></g><path fill="#FFF" d="M60.9 51.5l36.4-7.3-2.2-1.6-34.3 6.9c0 .7 0 1.4.1 2zm40-4.7l-38.8 7.8c.3.6.8 1.1 1.2 1.6l4.6 4.5 40.6-8.2-7.6-5.7z"/><path fill="#F3D49D" d="M158.1 103.8l-2.4-1.3c-1.5-.8-3.3-.2-4 1.3l-8.9 17c-.3.5-1.4 2-3 1.2-1.5-.7-1-2.1-.7-2.8 0 0 0-.1.1-.1l9.5-18.1c.8-1.5.2-3.3-1.3-4l-2.2-1.2c-1.5-.8-3.3-.2-4 1.3l-9.5 18.1s0 .1-.1.1c0 0-1.7 2.5-4.5 1.2-2.4-1.1-1.4-3.2-1-3.8.2-.2.3-.4.5-.6l9.6-18.4c.8-1.5.2-3.3-1.3-4l-2.4-1.2c-1.5-.8-3.3-.2-4 1.3l-9.6 18.2-2.9 4.5c-1.5-.5-3.2.3-3.7 1.8l-.9 2.5c-.5 1.4.1 2.8 1.2 3.6-1 9.1 3.9 18.7 2.5 23.3-2.4 7.8-4.3 22.7-14.4 47.5-7.9 19.4-25.7 62.2-31.5 70.4l13.2.2c5.4-9.3 25.3-57.8 29.6-67.6 5.5-12.6 15.6-46.9 15.6-46.9s4.6-2 9.2-6.3c2.2-2.1 9.3-8.3 13.1-15.2.1-.1.1-.2.2-.3l9.2-17.6c.8-1.5.3-3.3-1.2-4.1z"/><path fill="#00B5DD" d="M0 220.5h174.9v79.3H0z"/></svg>